<?xml version="1.0" encoding="UTF-8"?>
<svg width="39px" height="35px" viewBox="0 0 39 35" version="1.1" xmlns="http://www.w3.org/2000/svg" xmlns:xlink="http://www.w3.org/1999/xlink">
    <!-- Generator: Sketch 58 (84663) - https://sketch.com -->
    <title>Combined Shape</title>
    <desc>Created with Sketch.</desc>
    <defs>
        <linearGradient x1="50%" y1="0%" x2="50%" y2="100%" id="linearGradient-1">
            <stop stop-color="#0098F6" offset="0%"></stop>
            <stop stop-color="#005FEA" offset="100%"></stop>
        </linearGradient>
    </defs>
    <g id="Symbols" stroke="none" stroke-width="1" fill="none" fill-rule="evenodd">
        <g id="Footer" transform="translate(-1014.000000, -184.000000)" fill="url(#linearGradient-1)" fill-rule="nonzero">
            <g id="Group-5" transform="translate(230.000000, 178.000000)">
                <g id="headset" transform="translate(784.000000, 6.000000)">
                    <path d="M19.4004912,0.0391641989 C26.1004119,0.0391641989 32.1051678,4.17382976 34.4954473,10.4331531 C34.6385231,10.4059908 34.7838096,10.3908305 34.929412,10.3879879 C37.1052359,10.3879879 38.807931,12.9447152 38.807931,16.2095565 C38.807931,19.474082 37.1027091,22.0311252 34.9268852,22.0311252 C34.8855101,22.0311252 34.8412925,22.0213342 34.7973908,22.0213342 C32.9042439,29.0304624 28.0128249,33.4231695 21.8482537,33.651522 C21.3580695,34.5267155 20.405811,35.0399561 19.4052289,34.9679444 C17.9542585,34.9679444 16.817865,34.1158073 16.817865,33.0274216 C16.817865,31.9387201 17.9542585,31.0868987 19.4052289,31.0868987 C20.3881239,31.0196247 21.3252222,31.5101248 21.8302508,32.3559451 C28.6271344,32.0944293 32.4191131,26.446257 33.7004773,21.1423506 C34.0880134,19.5265115 34.2835185,17.8708767 34.282571,16.2095565 C34.282571,15.7999117 34.2651998,15.3912143 34.2307732,14.9837803 C34.1799229,14.4121094 34.0955935,13.8442284 33.9784168,13.2823486 C33.8558707,12.6500362 33.6916338,12.0265675 33.4869692,11.4157323 C31.4292696,5.37654968 25.7504607,1.32179169 19.3704864,1.33632039 C12.9905121,1.350849 7.330022,5.43182175 5.30011628,11.4804795 C5.1791495,11.8411692 5.06986871,12.2047014 4.9766958,12.5729712 C4.97290572,12.5884474 4.96974735,12.605187 4.96564137,12.6206631 C4.87846952,12.9693508 4.80677375,13.3253029 4.74518487,13.680939 C4.73697306,13.7295785 4.72718199,13.7772703 4.71865429,13.8265414 C4.66369811,14.1802825 4.62105965,14.5346554 4.58947562,14.8918708 C4.58284299,14.9641982 4.57842119,15.0374732 4.5724202,15.1098006 C4.54588961,15.4758595 4.52788674,15.8412868 4.52788674,16.2095565 C4.52662337,17.8392926 4.79477178,19.45829 5.32159342,21.0005383 C5.43024249,21.3185894 5.27705996,21.6669613 4.96911563,21.802141 C4.62611309,21.9531127 4.25563234,22.0311252 3.88104577,22.0311252 C1.70522187,22.0311252 -2.84217094e-13,19.474082 -2.84217094e-13,16.2095565 C-2.84217094e-13,12.9447152 1.70522187,10.3879879 3.88104577,10.3879879 C4.02348978,10.3914621 4.16530206,10.4066225 4.30521933,10.4331531 C6.69549883,4.17382976 12.7002549,0.0391641989 19.4004912,0.0391641989 Z M19.4052289,32.3805806 C18.6153123,32.3805806 18.1115469,32.7633791 18.1115469,33.0274216 C18.1115469,33.2911482 18.6153123,33.6742625 19.4052289,33.6742625 C20.1951455,33.6742625 20.6989108,33.2911482 20.6989108,33.0274216 C20.6989108,32.7633791 20.1951455,32.3805806 19.4052289,32.3805806 Z M19.4052289,2.62589633 C26.9073838,2.62589633 32.9888891,8.70740159 32.9888891,16.2095565 C32.9803614,23.7079215 26.9035937,29.7846891 19.4052289,29.7932167 C11.9030739,29.7932167 5.82156866,23.7113957 5.82156866,16.2095565 C5.82156866,8.70740159 11.9030739,2.62589633 19.4052289,2.62589633 Z M19.4052289,3.91957825 C12.6175047,3.91957825 7.11525058,9.42183241 7.11525058,16.2095565 C7.12283075,22.9938065 12.6206631,28.4919546 19.4052289,28.4995348 C26.1929531,28.4995348 31.6952071,22.9969649 31.6952071,16.2095565 C31.6952071,9.42183241 26.1929531,3.91957825 19.4052289,3.91957825 Z M25.2267975,18.7969204 C25.5840129,18.7969204 25.8736385,19.086546 25.8736385,19.4437613 L25.8736385,19.4437613 L25.8736385,25.26533 L24.5799566,25.26533 L24.5799566,20.0906023 L21.9925927,20.0906023 L21.9925927,18.7969204 Z M26.7099836,10.5771762 L27.6246572,11.4921656 L14.6878379,24.428669 L13.7731644,23.5139955 L26.7099836,10.5771762 Z M3.88104577,11.6816698 C2.47871478,11.6816698 1.29368192,13.7551615 1.29368192,16.2095565 C1.29368192,18.6636358 2.47871478,20.7374433 3.88104577,20.7374433 C3.45087131,19.2665749 3.23325727,17.7416979 3.23420481,16.2095565 C3.23420481,15.8621323 3.24904933,15.518498 3.27052647,15.1745478 C3.27684327,15.0820067 3.28473926,14.9894655 3.29168779,14.8969243 C3.31411239,14.614563 3.34411724,14.3340968 3.38170226,14.0561573 C3.39022997,13.9914101 3.39717841,13.9266628 3.40633776,13.8619155 L3.49082509,13.3459509 L3.59047268,12.8354345 L3.62426762,12.6914113 L3.733272,12.2342325 L3.85577855,11.7798962 L3.88104577,11.6816698 Z M34.929412,11.6816698 C34.9616277,11.7922139 34.9843682,11.9046531 35.0146889,12.0158289 C35.0582748,12.1781709 35.0996499,12.3386177 35.1375507,12.5015913 C35.1972445,12.7520527 35.2484106,13.0044091 35.2954709,13.2573972 C35.3238965,13.4131064 35.3551647,13.5684999 35.3788527,13.7248408 C35.4224387,14.0024645 35.4540227,14.2813514 35.4824484,14.561186 C35.4960294,14.6951023 35.514664,14.8277552 35.5250868,14.9616715 C35.5569867,15.3757381 35.5762529,15.7948582 35.5762529,16.2095565 C35.5762529,16.623939 35.5626718,17.0373741 35.5399313,17.4520724 C35.5323511,17.585357 35.5194017,17.7180099 35.5096106,17.8509787 C35.489081,18.1304974 35.4663405,18.410016 35.4353881,18.6882713 C35.417701,18.8446123 35.3965398,19.0000057 35.3756943,19.1550833 C35.3428469,19.4118615 35.3049461,19.6670605 35.2619918,19.9209961 C35.2354612,20.081443 35.2064039,20.2412582 35.1757674,20.4010734 C35.1552378,20.5078274 35.1397616,20.6171081 35.1176528,20.7244938 C36.4366019,20.5498342 37.5167758,18.5530917 37.5167758,16.2095565 C37.5167758,13.7551615 36.331743,11.6816698 34.929412,11.6816698 Z M13.5836602,9.74114691 C13.9084015,9.74114691 14.1772834,9.98050693 14.2234872,10.2924081 L14.2305012,10.3879879 L14.2305012,12.9753517 C14.2305012,13.300093 13.9911412,13.5689749 13.67924,13.6151787 L13.5836602,13.6221927 L11.6431373,13.6221927 L11.6431373,14.9158746 L14.2305012,14.9158746 L14.2305012,16.2095565 L10.9962964,16.2095565 C10.6715551,16.2095565 10.4026732,15.9701966 10.3564694,15.6582954 L10.3494554,15.5627156 L10.3494554,12.9753517 C10.3494554,12.6506105 10.5888154,12.3817286 10.9007166,12.3355247 L10.9962964,12.3285108 L12.9368192,12.3285108 L12.9368192,11.0348288 L10.3494554,11.0348288 L10.3494554,9.74114691 L13.5836602,9.74114691 Z M16.817865,9.74114691 L16.817865,12.3285108 L18.1115469,12.3285108 L18.1115469,9.74114691 L19.4052289,9.74114691 L19.4052289,16.2095565 L18.1115469,16.2095565 L18.1115469,13.6221927 L16.1710241,13.6221927 C15.8462828,13.6221927 15.5774009,13.3828327 15.5311971,13.0709315 L15.5241831,12.9753517 L15.5241831,9.74114691 L16.817865,9.74114691 Z" id="Combined-Shape"></path>
                </g>
            </g>
        </g>
    </g>
</svg>