<?xml version="1.0" encoding="UTF-8"?>
<svg width="39px" height="35px" viewBox="0 0 39 35" version="1.1" xmlns="http://www.w3.org/2000/svg" xmlns:xlink="http://www.w3.org/1999/xlink">
    <!-- Generator: Sketch 58 (84663) - https://sketch.com -->
    <title>Combined Shape</title>
    <desc>Created with Sketch.</desc>
    <defs>
        <linearGradient x1="50%" y1="0%" x2="50%" y2="100%" id="linearGradient-1">
            <stop stop-color="#0098F6" offset="0%"></stop>
            <stop stop-color="#005FEA" offset="100%"></stop>
        </linearGradient>
    </defs>
    <g id="Symbols" stroke="none" stroke-width="1" fill="none" fill-rule="evenodd">
        <g id="Footer" transform="translate(-468.000000, -182.000000)" fill="url(#linearGradient-1)" fill-rule="nonzero">
            <g id="Group-5" transform="translate(230.000000, 178.000000)">
                <g id="speech-bubble" transform="translate(238.000000, 4.000000)">
                    <path d="M25.5652174,0 C32.3491423,0 38.9565217,4.80209747 38.9565217,11.4130435 C38.9565217,14.0719259 37.9043818,16.6481828 35.9891304,18.6894531 C35.6101817,20.2516134 36.07027,21.9073964 37.2118716,23.048998 C37.4294328,23.2665591 37.4945227,23.5937925 37.3768257,23.8782269 C37.2591287,24.1623641 36.9818274,24.3478261 36.673913,24.3478261 C34.5039487,24.3478261 32.4127463,23.4969005 30.858908,21.9974524 C29.547894,22.4441661 27.8909222,22.7384086 26.2978515,22.8091457 C25.8618377,28.7567085 20.2403193,33.4782609 13.3913043,33.4782609 C11.5863197,33.4782609 9.61132809,33.165591 8.09761377,32.6496264 C6.54377546,34.1490744 4.45257301,35 2.2826087,35 C1.97469429,35 1.69739302,34.814538 1.57969601,34.5304008 C1.461999,34.2459664 1.52708896,33.918733 1.74465017,33.7011719 C2.88625172,32.5595703 3.34634003,30.9037873 2.9673913,29.341627 C1.05213995,27.3003567 0,24.7240998 0,22.0652174 C0,15.7027428 6.13480807,10.9987263 12.658373,10.6714928 C13.093198,4.72274113 18.7153108,0 25.5652174,0 Z M13.3913043,12.173913 C6.95720109,12.173913 1.52173913,16.7034647 1.52173913,22.0652174 C1.52173913,24.3903278 2.47252889,26.6500509 4.19875172,28.4279891 C4.28643007,28.5180452 4.35033116,28.6286091 4.38480807,28.7495754 C4.82111921,30.284392 4.63803497,31.904212 3.92085598,33.2782354 C5.22235905,32.9563519 6.41686485,32.2561141 7.33555535,31.2518257 C7.54925272,31.0185122 7.88480807,30.9415336 8.17845616,31.0586362 C9.54921024,31.6040252 11.5955333,31.9565217 13.3913043,31.9565217 C19.6845279,31.9565217 24.8043478,27.5194039 24.8043478,22.0652174 C24.8043478,16.3988197 19.4669667,12.173913 13.3913043,12.173913 Z M6.84782609,24.3478261 L19.4782609,24.3478261 C19.8985225,24.3478261 20.2391304,24.6884341 20.2391304,25.1086957 C20.2391304,25.4939354 19.9529251,25.8122441 19.5815158,25.8626202 L19.4782609,25.8695652 L6.84782609,25.8695652 C6.4275645,25.8695652 6.08695652,25.5289572 6.08695652,25.1086957 C6.08695652,24.7234559 6.37316184,24.4051472 6.74457116,24.3547711 L6.84782609,24.3478261 L19.4782609,24.3478261 Z M25.5652174,1.52173913 C19.5588061,1.52173913 14.6211786,5.56415589 14.1839759,10.674465 C16.026524,10.7737804 17.8207017,11.2182729 19.4442487,11.9775526 L19.8465099,12.173913 L32.1086957,12.173913 C32.5289572,12.173913 32.8695652,12.514521 32.8695652,12.9347826 C32.8695652,13.3200224 32.5833599,13.638331 32.2119506,13.6887072 L32.1086957,13.6956522 L22.1841033,13.6956522 C24.6379076,15.7036345 26.0731572,18.4079908 26.2954738,21.2853261 C27.8953804,21.206267 29.5900985,20.8790336 30.7780656,20.4064623 C31.0717137,20.2893597 31.407269,20.3666355 31.6209664,20.5996518 C32.5396569,21.6039402 33.7341627,22.3044752 35.0356658,22.6260615 C34.3184868,21.252038 34.1354025,19.6322181 34.5717137,18.0974015 C34.6061906,17.9767323 34.6700917,17.8661685 34.75777,17.7758152 C36.4839928,15.997877 37.4347826,13.7381539 37.4347826,11.4130435 C37.4347826,6.05129076 31.9993207,1.52173913 25.5652174,1.52173913 Z M19.4782609,19.7826087 C19.8985225,19.7826087 20.2391304,20.1232167 20.2391304,20.5434783 C20.2391304,20.928718 19.9529251,21.2470267 19.5815158,21.2974028 L19.4782609,21.3043478 L9.89130435,21.3043478 C9.47104276,21.3043478 9.13043478,20.9637398 9.13043478,20.5434783 C9.13043478,20.1582385 9.4166401,19.8399298 9.78804942,19.7895537 L9.89130435,19.7826087 L19.4782609,19.7826087 Z M32.1086957,7.60869565 C32.5289572,7.60869565 32.8695652,7.94930363 32.8695652,8.36956522 C32.8695652,8.7898268 32.5289572,9.13043478 32.1086957,9.13043478 L32.1086957,9.13043478 L22.5217391,9.13043478 C22.1014775,9.13043478 21.7608696,8.7898268 21.7608696,8.36956522 C21.7608696,7.94930363 22.1014775,7.60869565 22.5217391,7.60869565 L22.5217391,7.60869565 Z" id="Combined-Shape"></path>
                </g>
            </g>
        </g>
    </g>
</svg>