<?xml version="1.0" encoding="UTF-8"?>
<svg width="33px" height="35px" viewBox="0 0 33 35" version="1.1" xmlns="http://www.w3.org/2000/svg" xmlns:xlink="http://www.w3.org/1999/xlink">
    <!-- Generator: Sketch 58 (84663) - https://sketch.com -->
    <title>Combined Shape</title>
    <desc>Created with Sketch.</desc>
    <defs>
        <linearGradient x1="50%" y1="0%" x2="50%" y2="100%" id="linearGradient-1">
            <stop stop-color="#0098F6" offset="0%"></stop>
            <stop stop-color="#005FEA" offset="100%"></stop>
        </linearGradient>
    </defs>
    <g id="Symbols" stroke="none" stroke-width="1" fill="none" fill-rule="evenodd">
        <g id="Footer" transform="translate(-729.000000, -182.000000)" fill="url(#linearGradient-1)" fill-rule="nonzero">
            <g id="Group-5" transform="translate(230.000000, 178.000000)">
                <g id="map" transform="translate(499.000000, 4.000000)">
                    <path d="M10.2009778,15.5781737 L10.3145585,15.6137603 L16.4903828,18.2086202 L22.6662072,15.7099092 C22.8133265,15.6524516 22.9737908,15.6428136 23.1253584,15.680402 L23.2370185,15.7174389 L29.1828965,18.2529298 C29.3703123,18.3365842 29.5143227,18.4919425 29.5842889,18.6818 L29.6129598,18.7794315 L32.963978,34.0963447 C33.0216094,34.3610436 32.9312526,34.6358786 32.72795,34.8145649 C32.5536907,34.9677245 32.3198554,35.0296054 32.0961115,34.9867117 L31.9854031,34.9564712 L24.9274422,32.3911511 L16.6904998,34.6969853 C16.5881969,34.7230497 16.4819843,34.7280997 16.3782152,34.7122574 L16.275496,34.6894556 L8.04608332,32.2208634 L0.99536261,34.845263 C0.742537556,34.9408325 0.45756634,34.8895725 0.253974082,34.7117551 C0.0794664312,34.5583472 -0.0120605245,34.3342995 0.0012781791,34.1065434 L0.0167876551,33.9926662 L3.3678059,18.682993 C3.41000544,18.4816763 3.53390907,18.308658 3.70723633,18.2033314 L3.79786915,18.1564914 L9.73650714,15.6137603 C9.88501651,15.5544493 10.0470562,15.542587 10.2009778,15.5781737 Z M23.8153594,17.5709103 L25.5723923,31.0418819 L31.2292447,33.0954702 L28.2489207,19.4689807 L23.8153594,17.5709103 Z M22.3030427,17.4521723 L17.2317714,19.5060501 L17.2317714,33.0065615 L24.0823752,31.0789513 L22.3030427,17.4521723 Z M10.6409432,17.3560234 L8.83931114,30.9083741 L15.7489943,32.9842619 L15.7489943,19.4985204 L10.6409432,17.3560234 Z M9.12109668,17.4892417 L4.73213457,19.3725423 L1.75152101,32.9842619 L7.34176421,30.9011339 L9.12109668,17.4892417 Z M16.4889348,-1.84741111e-13 C18.2656608,-0.00144587771 19.9644832,0.730964895 21.1834301,2.02405073 C23.6803208,4.64392004 23.7397706,8.8465252 21.3617795,11.5210185 L21.1834301,11.7139409 L17.0241247,16.0585935 C16.8854039,16.2051336 16.6922374,16.2882502 16.4903828,16.2882502 C16.3288992,16.2882502 16.1729759,16.2350556 16.0460409,16.1387492 L15.956641,16.0585935 L11.7973356,11.7214706 C9.23954514,9.03741249 9.23954514,4.69304943 11.7973356,2.0312909 C13.0142553,0.736467406 14.7119192,0.00145016381 16.4889348,-1.84741111e-13 Z M16.4903828,1.4827792 C15.1188141,1.4827792 13.8086415,2.0518528 12.8723489,3.05446498 C10.9151394,5.09094102 10.8575744,8.37747758 12.693034,10.5009912 L12.8651087,10.6907668 L16.4831427,14.4718483 L20.1084168,10.6907668 C22.1249357,8.60010907 22.1249357,5.16742228 20.1084168,3.05446498 C19.1721242,2.0518528 17.8619516,1.4827792 16.4903828,1.4827792 Z M16.4903828,2.84681829 C18.263344,2.84681829 19.7006531,4.28412732 19.7006531,6.05708851 C19.7006531,7.83004964 18.263344,9.26735874 16.4903828,9.26735874 C14.7177113,9.26648991 13.2809814,7.82976005 13.2801126,6.05708851 C13.2801126,4.28412732 14.7174217,2.84681829 16.4903828,2.84681829 Z M16.4903828,4.32959534 C15.5378724,4.33336019 14.7666545,5.10457796 14.7628897,6.05708851 C14.7628897,7.011047 15.5364243,7.78458169 16.4903828,7.78458169 C17.4443414,7.78458169 18.217876,7.011047 18.217876,6.05708851 C18.217876,5.10312996 17.4443414,4.32959534 16.4903828,4.32959534 Z" id="Combined-Shape"></path>
                </g>
            </g>
        </g>
    </g>
</svg>